<?xml version="1.0" encoding="UTF-8"?>
<svg width="100%" height="100%" viewBox="0 0 1000 1000" xmlns="http://www.w3.org/2000/svg">
  <!-- Abstract Blob 1 -->
  <path d="M200,200 C300,100 400,300 500,200 C600,100 700,300 800,200 C900,100 1000,300 1000,400 C1000,500 900,600 800,500 C700,400 600,600 500,500 C400,400 300,600 200,500 C100,400 100,300 200,200" 
        fill="none" 
        stroke="url(#gradient1)" 
        stroke-width="4" 
        opacity="0.3"/>
  
  <!-- Abstract Blob 2 -->
  <path d="M100,800 C200,700 300,900 400,800 C500,700 600,900 700,800 C800,700 900,900 900,1000 C900,1100 800,1200 700,1100 C600,1000 500,1200 400,1100 C300,1000 200,1200 100,1100 C0,1000 0,900 100,800" 
        fill="none" 
        stroke="url(#gradient2)" 
        stroke-width="4" 
        opacity="0.3"/>
  
  <!-- Decorative Circles -->
  <circle cx="150" cy="150" r="100" fill="none" stroke="url(#gradient3)" stroke-width="3" opacity="0.2"/>
  <circle cx="850" cy="850" r="150" fill="none" stroke="url(#gradient4)" stroke-width="3" opacity="0.2"/>
  <circle cx="500" cy="500" r="200" fill="none" stroke="url(#gradient5)" stroke-width="3" opacity="0.2"/>
  
  <!-- Decorative Lines -->
  <line x1="100" y1="100" x2="900" y2="100" stroke="url(#gradient6)" stroke-width="3" opacity="0.2"/>
  <line x1="100" y1="900" x2="900" y2="900" stroke="url(#gradient7)" stroke-width="3" opacity="0.2"/>
  
  <!-- Additional Elements -->
  <path d="M300,300 L700,300 L700,700 L300,700 Z" 
        fill="none" 
        stroke="url(#gradient8)" 
        stroke-width="3" 
        opacity="0.2"/>
  
  <path d="M400,400 C500,300 600,400 700,300" 
        fill="none" 
        stroke="url(#gradient9)" 
        stroke-width="3" 
        opacity="0.2"/>

  <!-- New Colorful Elements -->
  <circle cx="250" cy="250" r="50" fill="url(#gradient10)" opacity="0.3"/>
  <circle cx="750" cy="750" r="70" fill="url(#gradient11)" opacity="0.3"/>
  <path d="M600,200 C700,100 800,300 900,200" 
        fill="none" 
        stroke="url(#gradient12)" 
        stroke-width="4" 
        opacity="0.3"/>
  
  <!-- Gradients -->
  <defs>
    <linearGradient id="gradient1" x1="0%" y1="0%" x2="100%" y2="100%">
      <stop offset="0%" style="stop-color:var(--accent-color);stop-opacity:0.6"/>
      <stop offset="100%" style="stop-color:var(--primary-color);stop-opacity:0.6"/>
    </linearGradient>
    <linearGradient id="gradient2" x1="0%" y1="0%" x2="100%" y2="100%">
      <stop offset="0%" style="stop-color:var(--primary-color);stop-opacity:0.6"/>
      <stop offset="100%" style="stop-color:var(--accent-color);stop-opacity:0.6"/>
    </linearGradient>
    <linearGradient id="gradient3" x1="0%" y1="0%" x2="100%" y2="100%">
      <stop offset="0%" style="stop-color:var(--accent-color);stop-opacity:0.5"/>
      <stop offset="100%" style="stop-color:var(--primary-color);stop-opacity:0.5"/>
    </linearGradient>
    <linearGradient id="gradient4" x1="0%" y1="0%" x2="100%" y2="100%">
      <stop offset="0%" style="stop-color:var(--primary-color);stop-opacity:0.5"/>
      <stop offset="100%" style="stop-color:var(--accent-color);stop-opacity:0.5"/>
    </linearGradient>
    <linearGradient id="gradient5" x1="0%" y1="0%" x2="100%" y2="100%">
      <stop offset="0%" style="stop-color:var(--accent-color);stop-opacity:0.4"/>
      <stop offset="100%" style="stop-color:var(--primary-color);stop-opacity:0.4"/>
    </linearGradient>
    <linearGradient id="gradient6" x1="0%" y1="0%" x2="100%" y2="0%">
      <stop offset="0%" style="stop-color:var(--accent-color);stop-opacity:0.4"/>
      <stop offset="100%" style="stop-color:var(--primary-color);stop-opacity:0.4"/>
    </linearGradient>
    <linearGradient id="gradient7" x1="0%" y1="0%" x2="100%" y2="0%">
      <stop offset="0%" style="stop-color:var(--primary-color);stop-opacity:0.4"/>
      <stop offset="100%" style="stop-color:var(--accent-color);stop-opacity:0.4"/>
    </linearGradient>
    <linearGradient id="gradient8" x1="0%" y1="0%" x2="100%" y2="100%">
      <stop offset="0%" style="stop-color:var(--accent-color);stop-opacity:0.4"/>
      <stop offset="100%" style="stop-color:var(--primary-color);stop-opacity:0.4"/>
    </linearGradient>
    <linearGradient id="gradient9" x1="0%" y1="0%" x2="100%" y2="100%">
      <stop offset="0%" style="stop-color:var(--primary-color);stop-opacity:0.4"/>
      <stop offset="100%" style="stop-color:var(--accent-color);stop-opacity:0.4"/>
    </linearGradient>
    <radialGradient id="gradient10" cx="50%" cy="50%" r="50%" fx="50%" fy="50%">
      <stop offset="0%" style="stop-color:var(--accent-color);stop-opacity:0.5"/>
      <stop offset="100%" style="stop-color:var(--primary-color);stop-opacity:0.5"/>
    </radialGradient>
    <radialGradient id="gradient11" cx="50%" cy="50%" r="50%" fx="50%" fy="50%">
      <stop offset="0%" style="stop-color:var(--primary-color);stop-opacity:0.5"/>
      <stop offset="100%" style="stop-color:var(--accent-color);stop-opacity:0.5"/>
    </radialGradient>
    <linearGradient id="gradient12" x1="0%" y1="0%" x2="100%" y2="0%">
      <stop offset="0%" style="stop-color:var(--accent-color);stop-opacity:0.6"/>
      <stop offset="100%" style="stop-color:var(--primary-color);stop-opacity:0.6"/>
    </linearGradient>
  </defs>
</svg> 